<svg class="skils_svg" data-name="Layer 7" xmlns="http://www.w3.org/2000/svg"
                                    viewBox="0 0 81.57 74.8">
                                    <defs>
                                        <style>
                                            .cls-1 {
                                                fill: none;
                                                stroke-linecap: square;
                                            }

                                            .cls-1,
                                            .cls-2 {
                                                stroke: #484852;
                                                stroke-miterlimit: 10;
                                                stroke-width: 2.63px;
                                            }

                                            .cls-2 {
                                                fill: none;
                                            }
                                        </style>
                                    </defs>
                                    <title>video editing</title>
                                    <g id="_17" data-name="17">
                                        <path class="cls-1"
                                            d="M248.18,301.76v4.61h3.18a13.55,13.55,0,0,0,1.52,3.66l-2.25,2.25,4.58,4.59,2.25-2.26a13.18,13.18,0,0,0,3.67,1.52v3.19h6.48v-3.19a13,13,0,0,0,3.66-1.52l2.25,2.26,4.59-4.59L275.85,310a13.24,13.24,0,0,0,1.52-3.66h3.19v-4.61"
                                            transform="translate(-223.58 -245.84)"></path>
                                        <path class="cls-1"
                                            d="M271.48,301.76a7.67,7.67,0,0,1,.13,1.37,7.25,7.25,0,0,1-14.49,0,6.84,6.84,0,0,1,.14-1.37"
                                            transform="translate(-223.58 -245.84)"></path>
                                        <rect class="cls-2" x="239.72" y="232.33" width="49.29" height="78.93"
                                            transform="translate(312.58 -238.4) rotate(90)"></rect>
                                        <polygon class="cls-2" points="36.67 17.97 36.67 27.48 44.33 22.73 36.67 17.97">
                                        </polygon>
                                        <line class="cls-2" x1="28" y1="42.25" x2="72.83" y2="42.25"></line>
                                        <line class="cls-2" x1="18.5" y1="42.25" x2="23.17" y2="42.25"></line>
                                        <line class="cls-2" x1="24.33" y1="45.6" x2="24.33" y2="38.91"></line>
                                        <line class="cls-2" x1="13.27" y1="45.6" x2="13.27" y2="38.91"></line>
                                        <line class="cls-2" x1="8.44" y1="45.6" x2="8.44" y2="38.91"></line>
                                        <path class="cls-2" d="M272.37,262.46a11.54,11.54,0,1,1-4.45-4.12"
                                            transform="translate(-223.58 -245.84)"></path>
                                    </g>
                                </svg>