<?xml version="1.0" encoding="utf-8"?>
<!-- Generator: Adobe Illustrator 16.2.1, SVG Export Plug-In . SVG Version: 6.00 Build 0)  -->
<!DOCTYPE svg PUBLIC "-//W3C//DTD SVG 1.1//EN" "http://www.w3.org/Graphics/SVG/1.1/DTD/svg11.dtd">
<svg version="1.1" id="city" xmlns="http://www.w3.org/2000/svg" xmlns:xlink="http://www.w3.org/1999/xlink" x="0px" y="0px"
	 width="550px" height="400px" viewBox="0 0 550 400" enable-background="new 0 0 550 400" xml:space="preserve">
<path fill="#F68B1F" d="M630.78,330.68v-0.562h-1.652v0.501h0.588v0.295h-1.326v1.007h-2.598v1.888H625.2v1.859h-0.295v0.533h0.354
	v2.095h-0.264v-0.265h-0.502l-0.178,0.322v0.709h-2.599v-3.865H617.2v-1.271h-0.562v-0.322h-0.266v-0.859h-0.266l-0.205-13.258
	h-0.267v-0.235h-0.295v-0.382l-3.688-1.921h-3.517v-0.854l-0.944-0.295v-0.738h-2.216v-1.507h-1.801l-1.949,1.357l-1.325,0.09
	l-0.179,0.208l-0.68,0.206v0.826l-0.385,0.059l-0.088,0.501l-0.797,0.03l0.206,15.235h-3.661v-0.386h-1.42l-0.382,0.442h-1.151
	v-1.121h-0.5V318.47h-0.519l-0.606-0.606h-1.15l-3.041,1.388h-2.332v-0.59h-0.207v0.56h-0.322v-0.234h-0.506v0.533h-2.655v-0.299
	h-1.39v0.238h-0.295l-0.233,0.208v0.265l0.352,0.412h0.326v3.896l-0.148,0.474h-1.502v-5.521h-0.268v-0.295l-4.488-0.887
	l-2.213,0.826h-0.592v-0.736h-1.181v-0.209h-1.329v-0.234h-1.093v0.234h-0.562v-0.207h-0.293v0.148l-4.666,0.119l0.061,9.299h-0.385
	l-0.031,6.26h-0.59l0.029-11.72l-0.297-0.414h-1.238l-0.264-0.562h-0.271l-0.295,0.562h-0.266l-0.297-0.74h-0.472l-0.35-8.856
	h-0.209v8.856h-0.533v-0.295h-0.59v0.683h-0.355l-0.233-15.533l-0.65-0.059l-0.088-1.416l-2.48-0.029l-0.149-0.178l-0.709-0.06
	l-0.086-0.236l-4.521,0.06l0.092,15.646l-1.477,0.062v0.236l-1.537,0.028v1.299h-0.647l-0.029-1.21h-0.178v1.417h-0.179
	l-0.266-0.237h-0.559v0.237h-1.478v0.709l-0.588,0.325l-2.07,0.059l0.412,0.59l0.031,0.472h-0.268l-0.027,1.39l-1.449,0.088
	l-0.233-0.442l-0.295,0.028l-0.324,0.18l0.146,7.853l-0.533,0.8h-2.331v0.825l-0.384,0.265v3.987h-0.325v-0.178l-0.355-0.119v-2.214
	h0.209v-0.293h-0.768v-0.178h-0.738v-0.828h-1.092v0.768h-0.562v-0.768h-0.828v0.236h-0.264v-1.27l-0.74-0.531v-1.389h-0.328v-0.236
	l-1.297-0.236h-0.768v-0.295h-0.324v0.266h-0.797v0.561H521.3v0.473h0.293v0.619h-5.077l-0.707,0.295v0.623h-0.269v-0.236h-0.322
	v-0.178l-3.518-0.233v-0.179l-0.707-0.414h-0.738l-0.676,0.268v0.547h-1.76l-0.398,0.396v1.889h-0.975V334.9l-1.006-0.885h-0.441
	l-0.529,0.59v1.418h-1.596v0.56h-0.621l-0.854-0.56l-0.029-5.315l-3.986,0.028v-5.67h-0.799v-8.974h-0.619v-1.062l-0.203-0.18
	h-2.127v-0.414l-0.475-0.354l-2.566,0.03l-0.059,0.382h-0.268l-0.119,0.414l-2.392,0.062l0.031,1.06l-0.27,0.032v9.002l-0.265,0.062
	l0.029,5.786h-0.264l-0.621,0.208v4.164h-1.031l-0.238,0.233v0.799h-2.895v-0.828l-0.265-0.115l-0.034-10.542l-1.298-0.119
	l-0.026-3.633l-0.945-0.056l-0.059-3.928l-2.672-0.104l-0.191-0.192h-0.916v0.238H475v-0.297h-1.947v0.327l-4.78,0.265v13.523
	h-0.828v-8.684l-0.826-0.828h-0.947v-0.469l-1.799-0.623v-0.206h-0.768v0.444h-1.064l-1.18,0.943h-0.386v0.385h-0.59v9.388h-0.209
	v0.681h-2.151v0.295h-0.297v4.076h-0.441v-0.298h-0.475v-11.514h-0.619v-0.826h-0.646v-0.828h-0.649v-0.825h-0.564v-0.533h-3.719
	v-2.215h-3.926v-0.147l-0.535-0.384v-0.44l-1.504-0.091l-3.396,0.297v1.064h-3.336v1.24h-0.738l-1.147-0.742h-0.594l-2.628,1.506
	v0.387h-0.647v-0.295h-1.566v-1.094h-0.411v-0.65h-0.505v-1.093h-0.321l-0.74-0.737h-0.914l-0.768-0.441v-0.529H424.9v-0.238
	l-1.125-0.518h-0.572l-0.516-0.516h-1.511v0.471h-0.942l-0.562,0.562h-0.621l-1.389,1.182h-0.295v0.502l-0.648-0.325l-1.123,1.299
	h-0.233v0.828h-0.383v0.796h-0.179v-4.294h-0.577v-0.238h-1.357v-0.295h0.236v-0.533h-0.412l-1.435-0.766h-1.535v0.252h-0.307
	v-0.252h-0.521v0.252h-0.246v-0.236h-0.252v0.251h-0.326v-0.236h-2.346v-1.15l-0.326-0.223l-0.726,0.015l-0.178,1.358h-0.473v-1.653
	h-0.177v1.624h-0.414v-0.501l-0.338-0.339v-0.709h-2.155v1.029h-0.281v0.771h-0.517v1.062h-0.221v-2.082h-1.641v1.269h-0.252
	l-0.25-0.501h-0.486l-0.074,0.268h-0.221l-0.295-0.326h-0.547v-0.441h0.533v-0.311h-0.548v-0.487h0.519v-0.325h-0.504v-0.426h0.547
	v-0.327h-0.562v-0.252h0.562v-0.544h-0.531v-0.249h0.543v-0.534h-0.59v-0.251h0.59v-0.562h-0.59v-0.252h0.564v-0.545h-0.595v-1.875
	h-0.16v-0.296h-0.577v-1.549h-0.277v0.265h-0.799v-0.265H393.5v-0.812h-2.631v-0.254h0.268v-0.265c1.461,0,1.947-0.414,1.947-0.414
	v-0.442h-0.459c-0.221,0.547-2.584,0.338-2.584,0.338v-0.812h-1.328v-0.235h-0.248v0.224h-0.504v-0.224h-1.67v-0.25h-1.34v0.945
	c-1.596,0.072-2.246-0.49-2.246-0.49h-1.018c0,0.49,0.647,0.535,0.647,0.535v0.159l-0.074-0.013
	c-1.668-0.089-1.801-0.503-1.801-0.503h-0.545v0.146c0.338,0.607,1.594,0.694,1.594,0.694v0.503h-0.235l-0.572,0.575v0.636h-1.601
	v1.283h-1.047v1.002h-0.25v0.312h0.25v0.797h-0.473v0.295h0.459v0.486h-0.516v0.281h0.266v0.518h-0.266v0.295h0.266v0.516h-0.238
	v0.282h0.238v0.28h-0.266v0.502h0.295v0.266h-0.281v0.531h0.252v0.265h-0.266v0.533h0.278v0.265h-0.297v0.531h0.297v0.281h-0.266
	v0.502h0.252v0.297h-0.238v0.514h0.238v0.282h-0.238v0.517h0.252v0.265h-0.252v0.562h0.238v0.236h-0.238v0.546h0.269v0.233h-0.269
	v0.533h0.238v0.282h-0.223v0.265h0.235v0.279h-0.252v0.531h0.238v0.282h-0.252v0.501h0.281v0.531h-0.269v0.252h0.252v0.528h-0.266
	v0.281h0.266v0.531h-0.266v0.267h0.281v0.282h-0.281v0.265h-0.236v0.769h-0.518v-0.251h-0.279v-2.657h-0.295v-2.923h-0.783v0.267
	h-0.266v-0.252h-0.812v-0.235h-1.104v0.471h-0.443v-1.594h-3.483v-0.25h-1.933v0.279h-2.631l-0.236,0.234v1.347h-0.725v-0.267
	l-2.437,0.027v0.281h-0.295v1.579h-0.278v-0.338h-0.441l-0.016-8.726h-1.138v-0.238l-1.567,0.016l-0.012-2.42l-5.064-0.029v-0.266
	l-7.44,0.027v0.549h-0.324l0.061,10.288h-0.488v-1.255l-0.321-0.323h-0.783v0.251l-2.879,0.025v-0.233h-0.828v0.233h-0.295v-0.233
	h-0.474v-0.251h-0.264v0.516l-2.424,0.121v1.195h-0.254v0.263h0.504v0.533h-0.557v0.282h0.307v0.249h-0.279v0.53h0.504v0.282h-0.521
	v0.267h0.533v0.25h-0.502v1.078h0.266v0.25h-0.279v0.295h0.295v0.235h-0.27v0.267h0.254v0.268h-0.266v0.544h0.28v0.252h-0.252v0.279
	h0.224v0.267h-0.24v0.266h0.24v0.222h-0.252v0.325h0.252v0.46h-0.252v0.325h0.252v0.248h-0.24v0.546h0.227v0.251h-0.209v0.252h0.236
	v0.297h-0.266v0.222h0.237v0.292h-0.237v0.547h-9.921l-0.413,0.682v5.669h-0.296l-0.544-51.759l-1.553-0.074l-0.014-0.249h-0.266
	v0.249l-3.218,0.046l0.014-1.08h-0.28l-0.016-0.265l-0.517-0.017l0.016-0.235h-1.02l-5.598,1.345l-0.025,1.831l-0.799,0.015v0.236
	l-0.265,0.013l-0.018,41.985l-6.881,0.018v0.531h-0.28v-0.282h-0.517v-1.342l-0.308-0.225h-0.769v-0.31h0.528v-1.021h-0.528v-0.309
	h0.485v-0.236h-0.485v-0.5h0.519v-0.311h-0.519v-0.267h0.519v-0.517h-0.504v-0.252h0.516v-0.268h-0.516v-0.279h0.504v-0.517h-0.519
	v-0.267h0.528v-0.296h-0.515v-0.235h0.505v-0.533h-0.52v-0.277h0.529v-0.281h-0.529v-0.25h0.529v-0.531h-0.516v-0.268h0.504v-0.265
	h-0.519v-0.267h0.528v-0.529h-0.515v-0.27h0.504v-0.529h-0.504l-0.015-0.844l-1.83,0.017l0.013-1.05l-0.53-0.043l-0.045-0.191
	l-0.457-0.061l-0.029-0.234l-0.842-0.325h-0.562v-0.178h-0.192V316l-0.543,0.018l-0.062-0.234l-2.111-0.034v-0.204h-0.78v0.238
	h-0.312v-0.284l-0.191,0.033v0.233l-0.828,0.044V316l-2.653,0.062v0.219l-0.843,0.03l-1.049,0.547h-0.25v-0.282h-0.254v0.325
	l-0.811,0.325v0.929h-0.221v0.341h-0.326v0.739h0.547v0.281h-0.516v0.545h0.516v0.235h-0.516v0.268h0.53v0.279h-0.975l-1.166,0.576
	v0.754h-0.499v0.53h0.499v0.249h-0.517v0.282h0.502v0.249h-0.502v0.547h0.517v0.268h-0.548v0.267h0.548v0.265h-0.533v0.529h0.546
	v0.27h-0.529v1.061h0.518v0.267h-0.518v0.28h0.518v0.52h-0.518v0.28h0.529v0.232h-0.529v0.297h0.518v0.501h-0.518v0.268h0.529v0.281
	h-0.529v0.547h0.518v0.233h-0.533v0.295h0.533v0.269h-0.518l-0.017,0.5h0.533v0.266h-0.517v0.253h0.528v0.295h-0.528v0.532h0.517
	v0.264h-0.548v0.252h0.561v0.295h-0.546v0.531h0.521v0.266h-0.533v0.254h0.547v0.53h-0.518v0.265h0.518v0.268h-0.518v0.531h0.518
	v0.248h-0.499v0.266h0.499v0.27h-0.499v0.529h0.499v0.295h-0.499v0.504h0.512v0.297h-0.528v0.278h0.528v0.502h-0.528v0.236h0.528
	v0.242h-0.329v0.245h-0.422l-0.331,0.332v0.752h-0.267v-0.242l-0.977-0.577h-0.617v0.377l-1.373-0.045v-0.886l-0.244-0.155h-1.064
	v-0.308h-0.465v-0.225h0.533v-0.508h-0.422v-0.223h0.399v-0.354h-0.487v-0.312h0.465v-0.463h-0.512v-0.289h0.534v-0.554h-0.512
	v-0.221h0.533v-0.577h-0.577v-0.243h0.556v-0.265h-0.487v-0.29h0.51v-0.488h-0.557v-0.288h0.534v-0.508h-0.512v-0.334h0.512v-0.551
	h-1.085l-1.33-0.221v-0.289h-1.593v-0.225h-0.555v0.268h-0.221v-0.531l-0.286-0.221h-1.817l-0.62,0.976h-0.534v-0.533h-0.152v0.533
	h-2.459v0.551h0.312v0.243h-0.267v0.577h0.197v0.243h-0.265v0.31h0.286v0.488h-0.308v0.265h0.332v0.512h-0.332v0.242h0.308v0.356
	h-0.243v0.485h0.291v0.267h-0.312v0.487h0.312v0.332h-0.291v0.508h0.267v0.312h-0.288v0.482h0.264v0.27h-0.243v0.485h0.312v0.332
	h-0.312v0.267h-0.752v0.243h-0.621V340.5h-0.44v0.199h-1.882l-0.178-0.221l-0.442-0.046l0.043-24.093l-2.303-0.111l0.021-0.486
	h-0.332v-0.773l-1.019-0.045l-0.089-0.488l-0.82-0.021v0.289l-0.421-0.023l-0.11-0.243h-0.466l-0.041,0.289l-3.943,0.245v-0.291
	h-0.817v-0.266h-0.688l-0.709,0.223v1.882h-1.062v-2.148h-0.377v-0.153h-0.575l-1.197-0.619h-0.952v-0.354h-0.907l-1.019,0.931
	h-1.771v0.998h-0.291l-0.354,0.265l0.31,25.289H244.4v-0.488h-0.863v0.245h-0.178v-0.234h-0.919l-0.521,0.521h-0.488v0.135h-0.176
	v-0.421H240.4v0.286l-0.289,0.244h-0.486v-0.244h-0.533v0.199h-0.286l-0.176-0.266h-0.423l-0.421,0.311v0.268h-0.596v-0.268h-1.02
	v-0.32h-0.388l-0.208-0.21h-0.512v0.243h-0.243l-0.265-0.266h-1.262v0.266h-0.312l-0.265-0.465h-0.354v-0.248h0.31v-0.328h-0.399
	v-0.266h0.375v-0.556h-0.353v-0.243h0.353v-0.486h-0.375v-0.287h0.399v-0.533h-0.42v-0.266h0.42v-0.531h-0.399v-0.267h0.421v-0.31
	h-0.421v-0.465h0.442v-0.312h-0.42V334.9h0.399v-0.488h-0.486v-0.288h0.486v-0.529h-0.486v-0.288h0.464v-0.467h-0.442v-0.308h0.464
	v-0.466h-0.464v-0.312h0.486v-0.312h-0.486v-0.265h0.486v-0.51h-0.507v-0.265h0.486v-0.489h-0.51v-0.287h0.51v-0.531h-0.486v-0.31
	h0.507v-0.467h-0.486v-0.284h0.464V327.7h-0.464v-0.442h0.486v-0.311h-0.486v-0.309h0.486v-0.512h-0.507v-0.309h0.507v-0.463h-0.507
	v-0.312h0.507v-0.508h-0.507v-0.312h0.486v-0.729h-0.486v-0.312h0.464V322.5h-0.464v-0.33h0.507v-0.846l-2.082-0.02l-0.021-1.044
	h-2.347l-0.377-0.286l-2.568,0.043l-0.089,0.223l-0.731,0.045v1.02l-0.798,0.065l-0.043,0.245l-0.377,0.021l-0.998,0.177v15.922
	h-2.633v-0.73l0.243-0.133l0.022-0.844h0.243l0.091-0.528l0.197-0.087v-0.557l0.089-0.775l0.178-0.11l0.043-0.688l1.152-1.878
	l0.154-0.026l0.024-0.442l-0.243,0.024l-1.553,2.61l-0.063,0.554l-0.312,0.91l-0.221,0.222l-0.243,1.462l-0.264,0.021l-0.046,1.02
	h-0.822v0.354h0.291v0.772h-0.178v2.039h-0.642v-0.442h-0.178l-0.334,0.375v0.444h-0.265v-0.487l-0.178-0.311h-0.308v-0.268h0.33
	v-0.267h-0.352v-0.286h0.33v-0.465h-0.308v-0.312h0.308v-0.286h-0.375v-0.333h0.332v-0.44h-0.332v-0.244h0.375v-0.31h-0.351v-0.334
	h0.308v-0.42h-0.332v-0.289h0.332v-0.267h-0.354v-0.287h0.354v-0.485h-0.308v-0.267h0.308v-0.311h-0.354v-0.285h0.31v-0.468h-0.264
	v-0.267h0.286v-0.288h-0.31v-0.354h0.332v-0.265h-0.399v-0.378h0.377v-0.286h-0.421v-0.354h0.354v-0.488h-0.31v-0.288h0.332v-0.286
	h-0.354v-0.245h0.399v-0.312h-0.442v-0.512h0.442v-0.193h-0.442v-0.356h0.42v-0.221h-0.442v-0.575h0.464v-0.844h-0.486v-0.885
	l-8.835-3.564h-0.49v1.305h-0.551v2.174h-0.221l-0.356-0.179h-1.839v0.664l-0.355,0.329h-0.13v0.291h0.464v0.243h-0.508v0.51h0.551
	v0.288h-0.551v0.266h0.551v0.512h-0.551v0.308h0.529v0.243h-0.553l-0.219,0.268v2.125l0.243,0.268h0.508v0.242h-0.508v0.312h0.551
	v0.265h-0.507v0.508h0.507v0.312h-0.485v0.223h0.464v0.375h-0.486v0.422h0.486v0.287h-0.529v0.465h0.551v0.31h-0.551v0.289h0.551
	v0.265h-0.529v0.533h0.486v0.243h-0.508v0.267h0.529v0.531h-0.553v0.266h0.553v0.287h-0.529v0.467h0.529v0.287h-0.575v0.264h0.575
	v0.355h-0.529v0.756h-0.512v0.506h-0.243v-0.506l-0.156-0.334h-0.772l-0.291,0.287h-0.664v-0.464h-0.818l-0.045-26.087h-0.707v-0.27
	h0.197v-0.528h-0.197v-0.289h0.219v-0.508h-0.243v-0.244h0.221v-0.575h-0.197v-0.224h0.219v-0.554h-0.219v-0.265h0.265v-0.553
	h-0.265v-0.334h0.243v-0.509h-0.267v-0.465h0.243v-0.576h-1.438l-0.334-0.334v-0.521h-0.41l-0.475-0.473h-0.466v-1.64h-0.752
	l-0.664-0.467h-1.02v0.288h-1.572v0.265h-1.329v0.244h-1.57v-0.244h-0.555v0.199h-0.553v-0.242h-0.462v0.266h-3.502v-0.243h-0.842
	v0.243h-1.086v-0.464h-0.507v0.485h-0.286v1.64h-0.267v0.265h-0.223l-0.022,0.266H180.3l-0.418,0.443h-0.334l-0.507,0.577h-0.332
	v0.531h0.332v0.265h-0.356v0.533h0.332v0.286h-0.332v0.51h0.31v0.51h-0.355v0.288h0.401v0.508h-0.377v0.291h0.354v0.485h-0.332v0.31
	h0.377v0.551h-0.423v0.246h0.401v0.467h-0.931l-0.113,25.043h-1.349v0.533l-0.599-0.267l-0.021-0.268h-1.195l-0.067-0.286h-0.464
	l-0.045,0.799l-0.553,0.043l-0.067-0.556h-1.486v-0.265h-0.507v0.231h-0.499l-0.187-0.188h-1.683v0.355h-0.291v-0.199l-0.573-0.334
	l-0.533,0.421v0.245h-0.265v-0.245h-0.642v0.245h-0.954v-1.595h-0.221v-1.55h-0.31v-4.055h-2.722v-0.529h-0.445v-0.223h-0.531v0.223
	h-0.265v-0.397l-0.355-0.312h-2.037v0.201l-1.108,0.222h-0.243v0.288h-1.084v0.816h-0.334v-0.199h-0.442v0.246h-1.882v7.637h-0.642
	l-0.531-0.176h-0.931v-0.31h-0.342v0.254l-0.232,0.231h-0.31l-0.156-0.153h-0.553V330.07h0.709v-0.532h-2.35v-0.483h-1.262v0.219
	h-0.796v-1.035h-0.355v-0.2h-0.2l-0.065-0.91h-0.087l-0.069,0.887h-1.659v0.224h-1.219v-0.246h-1.772v-0.707h-0.752v-0.289h-0.51
	v0.354h-0.289l-0.11-1.947l-0.111,0.021v1.947h-0.267v-0.133h-0.841v-0.885h-0.286v0.332h-0.488v0.221h-0.176v-0.265h-0.598v0.265
	h-0.265v0.6h-0.267v0.197h-0.819v-0.24h-0.289v-0.225h-0.265v0.199h-0.289v-0.199h-0.466v0.511h-1.483l-0.154,0.221h-0.731v0.599
	h0.798v13.285h-0.534v-0.285h-0.221v-0.179l-0.377-0.375h-1.834l-0.245-0.222h-1.151v0.222l-0.377,0.243h-1.839v-6.001h0.199
	l0.269-0.378v-0.528h0.286v-0.513h-2.06l-0.575-0.531h-0.597v-0.219h-0.512v0.219l-0.332,0.332h-0.818v-0.642h-0.245l-0.154-0.222
	h-1.971v0.242h-0.289v-0.221h-2.435v0.861h-5.472v0.379l0.555,0.312v0.574h0.488v6.333h-0.223l-0.287,0.268h-0.442l-0.31-0.223
	h-0.332v-0.334h-0.399l-0.156-0.199h-0.976l-0.243,0.291h-0.354v0.771h-0.221v0.222h-0.289v-0.243h-0.334v-0.464l0.334-0.332
	l-0.022-0.267h-0.464l-0.021-8.525h0.308v-0.51h-0.553v-0.286h0.73l0.311-0.312v-0.465h-2.349l-0.198-0.199h-0.974l-0.399,0.156
	h-1.705v-0.556h-1.106v0.599h-0.534v-0.287l-0.442-0.244h-0.312v-0.244h-2.633v0.818H92.3v0.332l0.621,0.422v0.51h0.265v1.904
	l-1.041-0.022v-0.531h-0.532l-0.286,0.265l-0.267,0.024v-1.084h-1.861v0.771h-0.243l-0.243,0.136v-1.128h-0.245v1.171l-0.375,0.377
	h-0.488v-0.267h-0.553v0.244h-0.289v-0.221h-0.642l-0.354,0.266v0.198h-0.356v-11.581h-0.885l-0.377-0.397h-1.748v-1.22
	l-0.356-0.285h-5.426v1.306h-0.575l-0.243,0.267h-0.842l-0.73,0.444h-0.512l0.245,20.038H73.52v0.441h-0.245l-0.33-0.662h-0.291
	l-0.152,0.642h-0.267v-2.589h0.154v-0.447H72.19v-0.173h-0.13v-0.271h-0.2v-0.375h0.178v-0.289h-0.199v-0.174h0.199v-0.397h-0.199
	v-0.444h0.178v-0.267H71.75v-0.312h0.199v-0.285h-0.221v-0.289h0.243v-0.51h-0.243v-0.221h0.178v-0.598H71.75v-0.221h-0.311v-0.467
	h0.245v-0.312h-0.245v-0.287h0.245v-0.309h-0.245v-0.442h0.245v-0.308h-0.221v-0.248h0.2v-0.308h-0.245v-0.246h0.245v-0.553h-0.334
	v-0.222h0.312v-0.242H71.24v-0.312h0.332v-1.084h-0.375v-0.199h0.197v-0.285h-0.221v-0.291h0.221v-0.287h-0.243v-0.265h0.221v-0.532
	h-0.243v-0.201h0.243v-0.285h-0.221v-0.311h0.199v-0.51h-0.178v-0.222h0.221v-0.354H71.15v-0.244h0.243v-0.531H71.15v-0.51h-0.287
	v-0.309h0.265v-0.421h-0.221v-0.354h0.265v-0.287h-0.265v-0.487h0.243v-0.267h-0.53v-0.355h0.31v-0.156h0.31v-0.33h-0.332v-0.242
	H70.62v-0.556h-1.594v-0.308l-0.863-0.268v-0.709l-1.019-0.289h-0.486l-0.577,0.225v0.265h-0.354v-0.399l-0.31-0.354h-0.399v-0.265
	h-0.264v0.287h-0.488l-2.147,1.42v0.396h-0.267v0.286h-0.245v0.227h0.512v0.375h-0.245v0.153H61.52v0.286h0.575v0.312h-0.243v0.508
	h0.267v0.246h-0.288v0.266h0.264v0.331h-0.221v0.467h0.178v0.353h-0.178v0.465h0.245v0.289h-0.334v0.556h-0.223v0.485h0.291v0.309
	h-0.31v0.223h0.289v0.289h-0.245v0.485h0.267v0.289h-0.267v0.288h0.223v0.285h-0.267v0.225h0.289v0.597h-0.269v0.222h0.223v0.267
	h-0.243v0.267h0.267v0.243h-0.223v0.577h0.245v0.219h-0.269v0.288h0.223v0.245H61.52v0.354h0.243v0.422H61.52v0.334h0.219v0.176
	H61.52v0.286h0.243v0.288h-0.202v0.556h0.223v0.243h-0.243v0.266h0.289v0.334h-0.555v5.446l-0.287,0.222v1.684l-0.666,0.043
	l-0.089,0.289h-0.551v-0.289l-0.887-0.021l-0.334,0.557h-0.618v0.328h-0.245l-0.045-1.148l-0.507,0.021l0.021,0.73l-0.486,0.043
	l-0.134,0.245h-0.486v-0.245H55.65v0.245h-0.508v-0.222h-1.041v0.222h-0.754v-0.201h-0.243v0.201h-0.377v-0.222h-0.175v0.265h-1.108
	v-0.222h-2.301v0.199h-1.729v-0.31h-0.796l-0.245-0.178h-0.551l-0.291,0.245h-0.265v-0.269l-1.24-0.243l-0.555,0.021v-0.554h-0.222
	v-0.311h0.245v-0.773h-0.332v-0.354h0.286v-0.711h-0.397v-0.551h0.332v-1.263h-0.421v-0.311h0.377v-0.245h-0.334v-0.265h0.312
	v-0.243h-0.356v-1.132h0.356v-0.751h-0.356v-0.31h0.377v-1.353h-0.312v-0.462h0.245v-1.331h-0.354v-0.33h0.33v-0.666h-0.264v-0.354
	h0.264v-1.617H42.85v-0.31h0.377v-0.512h-5.159v-1.041h-0.445v-0.507h-0.13v0.507h-1.462l-0.288-0.221H31.16l-0.245,0.221h-0.42
	v0.799h-0.618l-0.2-0.265H27.86l-0.31,0.507h-1.793l-0.577,0.82l0.023,0.798l0.241,0.286h0.399v0.199h-0.442v0.334h0.577v0.199
	h-0.553v0.33h0.464v0.267h-0.488v0.796h0.288v0.225h0.289v0.289h-0.553v1.325h0.532v0.287h-0.512v1.041h0.534v0.29h-0.534v0.796
	h0.512v0.245h-0.512v0.798h0.512v0.222h-0.243v0.332H25.49v0.797h0.488v0.264h-0.51v0.266h0.466v0.225h-0.466v0.287h0.466v0.222
	h-0.466v0.354h0.221v0.486h-0.132v0.288h0.377v0.222h-0.42v0.288h0.434v0.265h-0.384v0.325h-0.916v1.062l-0.236,0.235h-0.234v-1.063
	h-0.621v0.594h-0.724v-0.28l-0.369-0.369H21.74v-0.399l-0.28-0.281h-0.679l-0.208,0.208h-0.382v-8.738h-0.429v-2.199l-0.251-0.252
	l-2.451-0.058v-0.741l-0.427-0.135l-0.193-0.189h-0.766l-0.297-0.178h-0.974l-0.915,0.269l0.03,0.737l-0.531,0.086v2.834h-0.534
	v-1.237l-0.915-0.116v-0.799l-0.234-0.238h-0.208l-0.056,0.268l-2.127,0.029l-0.059,1.594H8.44l-0.267,0.502h-3.66v-0.414
	L4.04,332.54l-0.916,0.026l0.031,0.738l-0.091,0.031v6.73l-0.766,0.888H1.975l-0.325-0.208l-0.859,0.029l-0.147,0.147h-0.798
	L-0.21,344.7h-0.473v-0.179h-0.65v0.209h-0.354l-0.325-0.474h-1.299l-0.501,0.384v0.299H-4.11v-0.737h-0.382v-0.328h0.382v-0.384
	h-0.412v-0.234h0.412v-0.324h-0.412v-0.27h0.325v-0.204h-0.325v-0.325h0.355v-0.324h-0.325v-0.236h0.234v-0.268h-0.826v-0.529H-6.47
	v0.529h-0.267v-0.309h-1.609l-0.193,0.191v0.354h-0.295v-1.86h-1.327v-0.355h-0.768v0.209h-0.798v0.295h-2.954v-0.946h-0.737v-0.146
	l-0.796-0.233h-0.325v0.295l-0.62,0.385h-0.974v0.527H-18.4v-0.264l-0.752-0.016l-0.221,0.221h-0.382v-0.178h-0.355l-0.417,0.209
	l-0.026,0.232h-0.798v0.298h-0.326v0.62h0.265v1.551h-0.265v0.531l0.354,0.045v0.885h-0.31l-0.043,0.31l-1.726,0.048v0.264h-0.488
	l-0.089-0.264l-0.486-0.048l-0.356-0.529h-0.178v0.396h-1.904l-1.015,0.307v67.94l658.698-0.379v-80.978h-0.412v-0.234h0.412V330.68
	z M414.72,321.615h0.285v0.265h-0.285V321.615z M414.72,322.678h0.285v0.266h-0.285V322.678z M414.72,323.74h0.285v0.265h-0.285
	V323.74z M414.72,324.803h0.285v0.266h-0.285V324.803z M414.72,325.865h0.285v0.265h-0.285V325.865z M414.72,326.928h0.285v0.268
	h-0.285V326.928z M414.72,327.991h0.285v0.267h-0.285V327.991z M414.72,329.057h0.285v0.267h-0.285V329.057z M414.72,330.118h0.285
	v0.265h-0.285V330.118z M414.72,331.182h0.285v0.265h-0.285V331.182z M414.72,332.243h0.285v0.268h-0.285V332.243z M414.72,333.307
	h0.285v0.265h-0.285V333.307z M414.72,334.369h0.285v0.267h-0.285V334.369z M414.72,335.434h0.285v0.266h-0.285V335.434z
	 M414.72,336.496h0.285v0.265h-0.285V336.496z M415.02,337.294h-0.287v-0.267h0.287V337.294z M415.02,336.229h-0.287v-0.267h0.287
	V336.229z M415.02,335.165h-0.287V334.9h0.287V335.165z M415.02,334.104h-0.287v-0.267h0.287V334.104z M415.02,333.039h-0.287
	v-0.266h0.287V333.039z M415.02,331.979h-0.287v-0.267h0.287V331.979z M415.02,330.914h-0.287v-0.266h0.287V330.914z
	 M415.02,329.852h-0.287v-0.265h0.287V329.852z M415.02,328.789h-0.287v-0.266h0.287V328.789z M415.02,327.727h-0.287v-0.265h0.287
	V327.727z M415.02,326.663h-0.287v-0.265h0.287V326.663z M415.02,325.602h-0.287v-0.268h0.287V325.602z M415.02,324.538h-0.287
	v-0.269h0.287V324.538z M415.02,323.475h-0.287v-0.268h0.287V323.475z M415.02,322.413h-0.287v-0.267h0.287V322.413z"/>
</svg>
