<?xml version="1.0" encoding="utf-8"?>
<!-- Generator: Adobe Illustrator 16.2.1, SVG Export Plug-In . SVG Version: 6.00 Build 0)  -->
<!DOCTYPE svg PUBLIC "-//W3C//DTD SVG 1.1//EN" "http://www.w3.org/Graphics/SVG/1.1/DTD/svg11.dtd">
<svg version="1.1" id="cloud1" xmlns="http://www.w3.org/2000/svg" xmlns:xlink="http://www.w3.org/1999/xlink" x="0px" y="0px"
	 width="550px" height="400px" viewBox="0 0 550 400" enable-background="new 0 0 550 400" xml:space="preserve">
<g>
	<defs>
		<path id="SVGID_1_" d="M89.477,235.702c-2.537-1.821-6.335-2.98-10.584-2.98c-3.458,0-6.618,0.77-9.042,2.038
			c-0.745-2.379-3.056-4.113-5.794-4.113c-3.34,0-6.048,2.579-6.048,5.76c0,0.544,0.084,1.069,0.233,1.568
			c-14.792,1.373-24.235,3.461-24.235,5.8c0,0.13,0.029,0.26,0.087,0.388c-0.864-0.308-1.821-0.483-2.832-0.483
			c-3.816,0-6.911,2.449-6.911,5.472s3.095,5.472,6.911,5.472c2.287,0,4.309-0.882,5.567-2.236c0.442,0.239,0.919,0.413,1.422,0.51
			c1.666,2.129,4.688,3.551,8.14,3.551c2.866,0,5.433-0.981,7.176-2.531c1.208,0.861,2.71,1.38,4.345,1.38
			c1.968,0,3.75-0.744,5.049-1.947c1.451,1.205,3.427,1.947,5.606,1.947c2.123,0,4.052-0.704,5.492-1.853
			c1.176,3.043,5.619,5.308,10.925,5.308c2.006,0,3.888-0.326,5.518-0.893c1.96,1.517,4.585,2.445,7.473,2.445
			c3.446,0,6.521-1.322,8.532-3.39c0.896-0.044,1.773-0.146,2.628-0.305c1.499,0.988,3.294,1.565,5.224,1.565
			c3.096,0,5.845-1.479,7.58-3.771c1.052,1.253,2.555,2.043,4.229,2.043c0.53,0,1.042-0.085,1.53-0.232
			c1.474,1.558,3.598,2.536,5.958,2.536c4.032,0,7.374-2.854,7.97-6.581c0.896,1.2,2.281,1.974,3.839,1.974
			c2.151,0,3.975-1.473,4.631-3.516c0.399,0.218,0.843,0.384,1.317,0.491c1.637,1.688,4.038,2.754,6.716,2.754
			c4.931,0,8.928-3.61,8.928-8.065c0-4.452-3.998-8.062-8.928-8.062c-1.131,0-2.211,0.19-3.207,0.537
			c-0.606-0.524-1.394-0.843-2.258-0.843c-0.675,0-1.303,0.196-1.835,0.531c-0.571-2.589-3.525-4.563-7.093-4.563
			c-2.332,0-4.399,0.847-5.716,2.154c-0.347-0.551-0.792-1.053-1.323-1.489c-1.878-3.061-5.441-5.127-9.53-5.127
			c-3.071,0-5.844,1.167-7.832,3.041c-0.164-0.056-0.33-0.104-0.5-0.145c-3.195-3.318-7.976-5.429-13.32-5.429
			C98.312,226.412,92.13,230.241,89.477,235.702"/>
	</defs>
	<use xlink:href="#SVGID_1_"  overflow="visible" fill="#FFFFFF"/>
	<clipPath id="SVGID_2_">
		<use xlink:href="#SVGID_1_"  overflow="visible"/>
	</clipPath>
	
		<rect x="24.352" y="226.412" clip-path="url(#SVGID_2_)" fill="#FFFFFF" stroke="#BCBEC0" stroke-width="4" stroke-miterlimit="10" width="142.705" height="33.891"/>
	<use xlink:href="#SVGID_1_"  overflow="visible" fill="none" stroke="#BCBEC0" stroke-width="4" stroke-miterlimit="10"/>
</g>
</svg>
