<?xml version="1.0" encoding="utf-8"?>
<!-- Generator: Adobe Illustrator 16.2.1, SVG Export Plug-In . SVG Version: 6.00 Build 0)  -->
<!DOCTYPE svg PUBLIC "-//W3C//DTD SVG 1.1//EN" "http://www.w3.org/Graphics/SVG/1.1/DTD/svg11.dtd">
<svg version="1.1" id="cloud2" xmlns="http://www.w3.org/2000/svg" xmlns:xlink="http://www.w3.org/1999/xlink" x="0px" y="0px"
	 width="550px" height="400px" viewBox="0 0 550 400" enable-background="new 0 0 550 400" xml:space="preserve">
<g>
	<path id="SVGID_1_" fill="#FFFFFF" d="M377.443,125.252c0,0.331,0.014,0.66,0.028,0.988c-2.438-2.452-5.975-3.995-9.911-3.995
		c-6.053,0-11.159,3.648-12.778,8.643c-0.319-0.033-0.643-0.05-0.972-0.05c-4.043,0-7.465,2.533-8.609,6.024
		c-5.374,0.182-9.683,3.62-9.855,7.885c-2.797,1.038-4.305,2.137-4.305,3.277c0,0.539,0.344,1.068,0.992,1.586
		c-0.631,1.182-0.992,2.546-0.992,4c0,4.004,2.732,7.333,6.337,8.028c2.483,3.172,6.991,5.291,12.138,5.291
		c4.271,0,8.1-1.461,10.697-3.771c1.804,1.287,4.051,2.052,6.49,2.052c2.936,0,5.595-1.108,7.533-2.902
		c2.165,1.795,5.112,2.902,8.362,2.902c3.166,0,6.045-1.049,8.192-2.763c1.754,4.541,8.383,7.919,16.299,7.919
		c2.993,0,5.801-0.485,8.234-1.332c2.922,2.262,6.839,3.647,11.146,3.647c6.284,0,11.738-2.945,14.483-7.266
		c2.561,2.528,6.078,4.091,9.961,4.091c4.615,0,8.714-2.206,11.303-5.62c1.569,1.87,3.816,3.042,6.313,3.042
		c0.793,0,1.559-0.12,2.287-0.342c2.199,2.323,5.364,3.779,8.885,3.779c6.015,0,10.999-4.257,11.888-9.818
		c1.338,1.791,3.403,2.944,5.729,2.944c3.211,0,5.93-2.196,6.91-5.245c1.096,0.598,2.411,0.947,3.83,0.947
		c3.799,0,6.875-2.5,6.875-5.585c0-0.019-0.003-0.037-0.003-0.055c8.202-1.631,12.894-3.519,12.894-5.532
		c0-2.168-5.448-4.192-14.868-5.906c-0.676-2.059-2.611-3.546-4.896-3.546c-1.003,0-1.937,0.291-2.729,0.787
		c-0.854-3.86-5.269-6.802-10.591-6.802c-3.476,0-6.563,1.255-8.526,3.201c-1.851-2.92-5.607-4.92-9.949-4.92
		c-5.213,0-9.594,2.885-10.823,6.787c-0.438-0.02-0.876-0.038-1.315-0.057c-0.653-4.302-4.203-7.589-8.483-7.589
		c-1.729,0-3.34,0.538-4.687,1.461c-1.62-6.735-8.138-11.773-15.938-11.773c-2.154,0-4.212,0.389-6.096,1.087
		c-2.384-10.422-12.887-18.274-25.484-18.274C389.082,102.48,377.443,112.675,377.443,125.252"/>
</g>
<g>
	<path id="SVGID_2_" fill="none" stroke="#BCBEC0" stroke-width="4" stroke-miterlimit="10" d="M377.443,125.252
		c0,0.331,0.014,0.66,0.028,0.988c-2.438-2.452-5.975-3.995-9.911-3.995c-6.053,0-11.159,3.648-12.778,8.643
		c-0.319-0.033-0.643-0.05-0.972-0.05c-4.043,0-7.465,2.533-8.609,6.024c-5.374,0.182-9.683,3.62-9.855,7.885
		c-2.797,1.038-4.305,2.137-4.305,3.277c0,0.539,0.344,1.068,0.992,1.586c-0.631,1.182-0.992,2.546-0.992,4
		c0,4.004,2.732,7.333,6.337,8.028c2.483,3.172,6.991,5.291,12.138,5.291c4.271,0,8.1-1.461,10.697-3.771
		c1.804,1.287,4.051,2.052,6.49,2.052c2.936,0,5.595-1.108,7.533-2.902c2.165,1.795,5.112,2.902,8.362,2.902
		c3.166,0,6.045-1.049,8.192-2.763c1.754,4.541,8.383,7.919,16.299,7.919c2.993,0,5.801-0.485,8.234-1.332
		c2.922,2.262,6.839,3.647,11.146,3.647c6.284,0,11.738-2.945,14.483-7.266c2.561,2.528,6.078,4.091,9.961,4.091
		c4.615,0,8.714-2.206,11.303-5.62c1.569,1.87,3.816,3.042,6.313,3.042c0.793,0,1.559-0.12,2.287-0.342
		c2.199,2.323,5.364,3.779,8.885,3.779c6.015,0,10.999-4.257,11.888-9.818c1.338,1.791,3.403,2.944,5.729,2.944
		c3.211,0,5.93-2.196,6.91-5.245c1.096,0.598,2.411,0.947,3.83,0.947c3.799,0,6.875-2.5,6.875-5.585
		c0-0.019-0.003-0.037-0.003-0.055c8.202-1.631,12.894-3.519,12.894-5.532c0-2.168-5.448-4.192-14.868-5.906
		c-0.676-2.059-2.611-3.546-4.896-3.546c-1.003,0-1.937,0.291-2.729,0.787c-0.854-3.86-5.269-6.802-10.591-6.802
		c-3.476,0-6.563,1.255-8.526,3.201c-1.851-2.92-5.607-4.92-9.949-4.92c-5.213,0-9.594,2.885-10.823,6.787
		c-0.438-0.02-0.876-0.038-1.315-0.057c-0.653-4.302-4.203-7.589-8.483-7.589c-1.729,0-3.34,0.538-4.687,1.461
		c-1.62-6.735-8.138-11.773-15.938-11.773c-2.154,0-4.212,0.389-6.096,1.087c-2.384-10.422-12.887-18.274-25.484-18.274
		C389.082,102.48,377.443,112.675,377.443,125.252"/>
</g>
</svg>
