<?xml version="1.0" encoding="utf-8"?>
<!-- Generator: Adobe Illustrator 16.2.1, SVG Export Plug-In . SVG Version: 6.00 Build 0)  -->
<!DOCTYPE svg PUBLIC "-//W3C//DTD SVG 1.1//EN" "http://www.w3.org/Graphics/SVG/1.1/DTD/svg11.dtd">
<svg version="1.1" id="sunburst" xmlns="http://www.w3.org/2000/svg" xmlns:xlink="http://www.w3.org/1999/xlink" x="0px" y="0px"
	 width="550px" height="400px" viewBox="0 0 550 400" enable-background="new 0 0 550 400" xml:space="preserve">
<g>
	<path fill="#E6E974" d="M367.744,769.888h-0.185c-10.442,0-20.995-0.31-31.365-0.925l31.305-525.611c3.462,0.205-3.522,0,0,0l0,0
		L367.744,769.888z M399.468,768.932l-31.969-525.58c3.509-0.209-3.479,0.421,0,0l63.555,522.729
		C420.605,767.34,409.981,768.3,399.468,768.932z M304.627,766.15c-10.503-1.256-21.093-2.848-31.47-4.731l94.342-518.067
		c3.401,0.619-3.462-0.412,0,0L304.627,766.15z M462.471,761.323l-94.972-517.972c3.377-0.614-3.352,0.825,0,0L493.68,754.644
		C483.384,757.178,472.883,759.425,462.471,761.323z M242.078,754.786c-10.278-2.517-20.621-5.387-30.73-8.525l156.151-502.909
		c3.293,1.025-3.352-0.822,0,0L242.078,754.786z M524.422,746.077L367.499,243.352c3.328-1.037-3.227,1.226,0,0l187.019,492.325
		C544.652,739.425,534.528,742.925,524.422,746.077z M181.136,735.856c-9.903-3.751-19.821-7.857-29.478-12.203l215.841-480.302
		c3.162,1.424-3.246-1.229,0,0L181.136,735.856z M583.903,723.481l-216.404-480.13c3.154-1.422-3.077,1.619,0,0L612.468,709.54
		C603.124,714.456,593.512,719.145,583.903,723.481z M123.008,709.696c-9.359-4.915-18.695-10.185-27.748-15.664l272.239-450.681
		c2.976,1.805-3.072-1.612,0,0L123.008,709.696z M640.147,693.895L367.499,243.352c2.979-1.805-2.882,1.996,0,0l299.283,433.289
		C658.108,682.636,649.147,688.44,640.147,693.895z M68.552,676.745c-8.682-5.999-17.294-12.344-25.597-18.852l324.544-414.542
		c2.747,2.156-2.877-1.985,0,0L68.552,676.745z M692.335,657.807L367.499,243.352c2.739-2.148-2.611,2.316,0,0l349.237,394.103
		C708.842,644.453,700.633,651.301,692.335,657.807z M18.571,637.566c-7.868-6.972-15.635-14.279-23.084-21.717l372.012-372.498
		c2.495,2.493-2.629-2.329,0,0L18.571,637.566z M739.841,615.703L367.499,243.352c2.487-2.486-2.324,2.621,0,0l394.094,349.257
		C754.611,600.479,747.292,608.251,739.841,615.703z M-26.299,592.732c-6.973-7.857-13.81-16.043-20.32-24.329l414.118-325.052
		c2.179,2.774-2.32-2.615,0,0L-26.299,592.732z M781.916,568.248L367.499,243.352c2.152-2.743-1.99,2.877,0,0l433.285,299.308
		C794.777,551.342,788.43,559.952,781.916,568.248z M-65.485,542.834c-5.994-8.654-11.806-17.614-17.274-26.627l450.258-272.855
		c1.813,2.991-1.983-2.863,0,0L-65.485,542.834z M818.078,515.972l-450.579-272.62c1.799-2.971-1.615,3.068,0,0l466.267,244.87
		C828.842,497.585,823.563,506.921,818.078,515.972z M-98.431,488.518c-4.911-9.323-9.604-18.925-13.947-28.537l479.876-216.629
		c1.434,3.172-1.618-3.07,0,0L-98.431,488.518z M847.735,459.582l-480.236-216.23c1.424-3.159-1.23,3.239,0,0l492.46,186.751
		C856.201,440.006,852.088,449.923,847.735,459.582z M-124.597,430.584c-3.768-9.899-7.277-20.043-10.432-30.145l502.528-157.088
		c1.027,3.293-1.229-3.228,0,0L-124.597,430.584z M870.372,399.908L367.499,243.352c1.023-3.285-0.829,3.376,0,0L878.91,369.206
		C876.385,379.493,873.511,389.823,870.372,399.908z M-143.597,369.751c-2.533-10.271-4.785-20.755-6.689-31.167l517.786-95.232
		c0.622,3.402-0.828-3.352,0,0L-143.597,369.751z M885.574,337.992l-518.075-94.641c0.626-3.448-0.418,3.471,0,0l522.811,63.25
		C889.052,317.059,887.459,327.619,885.574,337.992z M-155.066,307.146c-1.265-10.447-2.23-21.082-2.869-31.609l525.434-32.186
		c0.211,3.507-0.419-3.464,0,0L-155.066,307.146z M893.146,274.988l-525.647-31.637c0.207-3.518,0,3.541,0,0l0,0l526.588-0.738
		v0.744C894.087,253.869,893.771,264.512,893.146,274.988z M-158.903,244.565l-0.005-1.208c0-10.326,0.304-20.773,0.906-31.05
		l525.501,31.044c-0.203,3.452,0-3.493,0,0l0,0l-350.018,0.38l-176.388-0.027L-158.903,244.565z M367.499,243.352
		C367.28,239.852,367.922,246.804,367.499,243.352l522.678-64.345c1.278,10.449,2.257,21.089,2.904,31.629L367.499,243.352z
		 M367.499,243.352L-155.202,180.7c1.249-10.494,2.835-21.084,4.715-31.477L367.499,243.352
		C366.88,246.767,367.909,239.902,367.499,243.352z M367.499,243.352C366.868,239.928,368.329,246.706,367.499,243.352
		l511.146-126.921c2.539,10.244,4.797,20.713,6.717,31.119L367.499,243.352z M367.499,243.352l-511.366-125.287
		c2.511-10.277,5.372-20.609,8.501-30.709L367.499,243.352C366.475,246.656,368.321,239.988,367.499,243.352z M367.499,243.352
		C366.47,240.063,368.731,246.584,367.499,243.352l492.08-187.738c3.777,9.895,7.297,20.029,10.461,30.122L367.499,243.352z
		 M367.499,243.352L-124.978,57.135c3.748-9.91,7.85-19.832,12.192-29.492L367.499,243.352
		C366.077,246.512,368.726,240.107,367.499,243.352z M367.499,243.352C366.067,240.193,369.111,246.408,367.499,243.352
		L833.347-2.301c4.927,9.329,9.635,18.938,13.992,28.559L367.499,243.352z M367.499,243.352L-98.84-1.024
		c4.909-9.356,10.172-18.69,15.643-27.741L367.499,243.352C365.694,246.336,369.114,240.272,367.499,243.352z M367.499,243.352
		C365.683,240.368,369.481,246.213,367.499,243.352L800.344-56.579c6.008,8.655,11.831,17.613,17.312,26.625L367.499,243.352z
		 M367.499,243.352L-65.932-55.471c5.989-8.679,12.326-17.293,18.833-25.605L367.499,243.352
		C365.34,246.109,369.481,240.479,367.499,243.352z M367.499,243.352C365.332,240.6,369.818,245.963,367.499,243.352
		l393.602-349.798c7,7.871,13.854,16.062,20.374,24.344L367.499,243.352z M367.499,243.352l-394.28-348.827
		c6.972-7.881,14.283-15.659,21.729-23.119L367.499,243.352C365.013,245.844,369.818,240.73,367.499,243.352z M367.499,243.352
		C365.022,240.883,370.114,245.664,367.499,243.352l348.674-394.59c7.898,6.98,15.69,14.298,23.161,21.747L367.499,243.352z
		 M367.499,243.352L18.038-150.379c7.876-6.998,16.07-13.846,24.354-20.357L367.499,243.352
		C364.747,245.517,370.114,241.029,367.499,243.352z M367.499,243.352C364.746,241.199,370.38,245.338,367.499,243.352
		L666.16-190.352c8.688,5.988,17.306,12.321,25.615,18.819L367.499,243.352z M367.499,243.352L67.925-189.596
		c8.679-6.015,17.646-11.838,26.651-17.307L367.499,243.352C364.533,245.154,370.37,241.363,367.499,243.352z M367.499,243.352
		C364.513,241.551,370.573,244.963,367.499,243.352l244.189-466.586c9.358,4.903,18.696,10.163,27.756,15.632L367.499,243.352z
		 M367.499,243.352L122.203-222.559c9.34-4.926,18.954-9.631,28.575-13.983L367.499,243.352
		C364.349,244.778,370.559,241.739,367.499,243.352z M367.499,243.352C364.333,241.934,370.737,244.576,367.499,243.352
		l186.007-492.698c9.908,3.741,19.834,7.838,29.502,12.176L367.499,243.352z M367.499,243.352L180.14-248.766
		c9.891-3.769,20.026-7.283,30.126-10.442L367.499,243.352C364.202,244.382,370.728,242.123,367.499,243.352z M367.499,243.352
		C364.2,242.333,370.853,244.172,367.499,243.352L492.568-268.2c10.282,2.507,20.62,5.363,30.73,8.491L367.499,243.352z
		 M367.499,243.352L240.958-267.796c10.241-2.538,20.704-4.792,31.093-6.703L367.499,243.352
		C364.089,243.98,370.853,242.521,367.499,243.352z M367.499,243.352C364.092,242.74,370.958,243.762,367.499,243.352
		l62.448-522.849c10.502,1.244,21.093,2.824,31.476,4.698L367.499,243.352z M367.499,243.352l-64-522.649
		c10.435-1.27,21.062-2.241,31.584-2.885L367.499,243.352C363.981,243.567,370.966,242.932,367.499,243.352z M367.499,243.352
		C364.087,243.155,370.956,243.352,367.499,243.352L367.499,243.352l-0.5-526.524h0.561c10.245,0,20.608,0.299,30.797,0.893
		L367.499,243.352z"/>
</g>
</svg>
