<?xml version="1.0" encoding="utf-8"?>
<!-- Generator: Adobe Illustrator 16.2.1, SVG Export Plug-In . SVG Version: 6.00 Build 0)  -->
<!DOCTYPE svg PUBLIC "-//W3C//DTD SVG 1.1//EN" "http://www.w3.org/Graphics/SVG/1.1/DTD/svg11.dtd">
<svg version="1.1" id="Layer_1" xmlns="http://www.w3.org/2000/svg" xmlns:xlink="http://www.w3.org/1999/xlink" x="0px" y="0px"
	 width="1000px" height="1000px" viewBox="0 0 1000 1000" enable-background="new 0 0 1000 1000" xml:space="preserve">
<g>
	<radialGradient id="SVGID_1_" cx="504.9053" cy="496.2471" r="495.1093" gradientUnits="userSpaceOnUse">
		<stop  offset="0" style="stop-color:#FFFFFF"/>
		<stop  offset="1" style="stop-color:#6DC8BF"/>
	</radialGradient>
	<path fill="url(#SVGID_1_)" d="M505.051,991.371h-0.174c-9.819,0-19.743-0.291-29.495-0.871l29.438-494.261
		c3.255,0.192-3.312,0,0,0l0,0L505.051,991.371z M534.881,990.473L504.82,496.239c3.299-0.196-3.271,0.396,0,0l59.764,491.55
		C554.759,988.975,544.769,989.877,534.881,990.473z M445.698,987.855c-9.876-1.182-19.834-2.68-29.595-4.449l88.717-487.167
		c3.196,0.582-3.256-0.39,0,0L445.698,987.855z M594.127,983.318L504.82,496.239c3.175-0.577-3.152,0.775,0,0l118.652,480.798
		C613.793,979.418,603.918,981.533,594.127,983.318z M386.879,977.172c-9.664-2.367-19.391-5.064-28.896-8.018L504.82,496.239
		c3.096,0.965-3.152-0.772,0,0L386.879,977.172z M652.383,968.98L504.82,496.239c3.129-0.978-3.035,1.152,0,0l175.861,462.962
		C671.406,962.725,661.887,966.016,652.383,968.98z M329.572,959.369c-9.312-3.527-18.641-7.389-27.719-11.475L504.82,496.239
		c2.974,1.339-3.055-1.153,0,0L329.572,959.369z M708.316,947.732L504.82,496.239c2.966-1.337-2.896,1.521,0,0l230.354,438.384
		C726.391,939.246,717.354,943.654,708.316,947.732z M274.911,934.77c-8.801-4.619-17.58-9.576-26.093-14.729L504.82,496.239
		c2.797,1.698-2.892-1.518,0,0L274.911,934.77z M761.207,919.91L504.82,496.239c2.8-1.696-2.711,1.876,0,0l281.432,407.442
		C778.097,909.322,769.669,914.783,761.207,919.91z M223.703,903.783c-8.165-5.643-16.263-11.607-24.071-17.729L504.82,496.239
		c2.582,2.027-2.706-1.865,0,0L223.703,903.783z M810.28,885.973L504.82,496.239c2.574-2.021-2.456,2.179,0,0l328.406,370.597
		C825.803,873.418,818.084,879.857,810.28,885.973z M176.704,866.941c-7.399-6.557-14.703-13.43-21.708-20.424L504.82,496.239
		c2.346,2.346-2.475-2.189,0,0L176.704,866.941z M854.953,846.381L504.82,496.239c2.338-2.336-2.188,2.464,0,0l370.588,328.425
		C868.843,832.064,861.961,839.375,854.953,846.381z M134.509,824.781c-6.558-7.391-12.986-15.088-19.107-22.877L504.82,496.239
		c2.049,2.608-2.185-2.458,0,0L134.509,824.781z M894.52,801.756L504.82,496.239c2.021-2.578-1.872,2.704,0,0L912.26,777.695
		C906.613,785.859,900.645,793.957,894.52,801.756z M97.661,777.859c-5.636-8.141-11.101-16.562-16.245-25.039L504.82,496.239
		c1.705,2.813-1.865-2.69,0,0L97.661,777.859z M928.523,752.602L504.82,496.239c1.689-2.792-1.521,2.885,0,0l438.456,230.265
		C938.646,735.311,933.682,744.088,928.523,752.602z M66.68,726.783c-4.618-8.768-9.031-17.797-13.115-26.836L504.82,496.239
		c1.348,2.98-1.522-2.886,0,0L66.68,726.783z M956.413,699.572L504.82,496.239c1.338-2.972-1.158,3.046,0,0l463.087,175.61
		C964.374,681.164,960.505,690.49,956.413,699.572z M42.074,672.303c-3.542-9.307-6.843-18.846-9.81-28.346L504.82,496.239
		c0.965,3.097-1.156-3.033,0,0L42.074,672.303z M977.699,643.457L504.82,496.239c0.962-3.086-0.78,3.176,0,0l480.908,118.349
		C983.354,624.262,980.651,633.977,977.699,643.457z M24.208,615.1c-2.381-9.656-4.499-19.516-6.29-29.309l486.903-89.552
		c0.584,3.2-0.779-3.149,0,0L24.208,615.1z M991.994,585.236L504.82,496.239c0.588-3.24-0.396,3.264,0,0l491.628,59.476
		C995.265,565.549,993.766,575.48,991.994,585.236z M13.423,556.229c-1.189-9.82-2.097-19.822-2.698-29.723l494.096-30.267
		c0.195,3.299-0.396-3.256,0,0L13.423,556.229z M999.115,525.988L504.82,496.239c0.191-3.308,0,3.33,0,0l0,0l495.18-0.694v0.701
		C1000,506.129,999.703,516.137,999.115,525.988z M9.814,497.382l-0.004-1.136c0-9.708,0.286-19.532,0.852-29.196l494.159,29.189
		c-0.191,3.246,0-3.282,0,0l0,0l-329.142,0.357L9.811,496.571L9.814,497.382z M504.82,496.239
		C504.613,492.95,505.217,499.485,504.82,496.239l491.503-60.502c1.202,9.825,2.121,19.831,2.729,29.738L504.82,496.239z
		 M504.82,496.239L13.295,437.327c1.175-9.867,2.667-19.826,4.435-29.601L504.82,496.239
		C504.237,499.453,505.205,492.999,504.82,496.239z M504.82,496.239C504.227,493.021,505.6,499.396,504.82,496.239l480.658-119.347
		c2.388,9.633,4.51,19.478,6.313,29.262L504.82,496.239z M504.82,496.239L23.955,378.428c2.361-9.664,5.051-19.379,7.994-28.878
		L504.82,496.239C503.855,499.347,505.593,493.078,504.82,496.239z M504.82,496.239C503.852,493.148,505.979,499.278,504.82,496.239
		L967.55,319.701c3.552,9.305,6.861,18.834,9.836,28.326L504.82,496.239z M504.82,496.239L41.716,321.133
		c3.524-9.319,7.382-18.649,11.465-27.733L504.82,496.239C503.482,499.211,505.973,493.19,504.82,496.239z M504.82,496.239
		C503.474,493.272,506.336,499.113,504.82,496.239l438.062-230.998c4.634,8.773,9.062,17.809,13.158,26.856L504.82,496.239z
		 M504.82,496.239L66.295,266.442c4.616-8.798,9.565-17.575,14.709-26.086L504.82,496.239
		C503.123,499.046,506.338,493.346,504.82,496.239z M504.82,496.239C503.111,493.438,506.684,498.931,504.82,496.239
		l407.024-282.038c5.65,8.139,11.126,16.562,16.28,25.037L504.82,496.239z M504.82,496.239L97.24,215.244
		c5.632-8.161,11.591-16.262,17.71-24.078L504.82,496.239C502.789,498.832,506.684,493.54,504.82,496.239z M504.82,496.239
		C502.782,493.652,507.001,498.694,504.82,496.239l370.125-328.931c6.582,7.401,13.026,15.103,19.158,22.892L504.82,496.239z
		 M504.82,496.239L134.057,168.222c6.556-7.411,13.431-14.725,20.432-21.74L504.82,496.239
		C502.482,498.583,507.001,493.775,504.82,496.239z M504.82,496.239C502.49,493.918,507.279,498.413,504.82,496.239l327.876-371.052
		c7.429,6.564,14.755,13.446,21.78,20.451L504.82,496.239z M504.82,496.239L176.202,125.996c7.407-6.58,15.111-13.02,22.901-19.143
		L504.82,496.239C502.232,498.277,507.279,494.057,504.82,496.239z M504.82,496.239C502.23,494.215,507.529,498.106,504.82,496.239
		L785.667,88.407c8.169,5.631,16.273,11.586,24.088,17.698L504.82,496.239z M504.82,496.239L223.114,89.119
		c8.161-5.657,16.594-11.132,25.062-16.274L504.82,496.239C502.031,497.935,507.52,494.369,504.82,496.239z M504.82,496.239
		C502.012,494.545,507.711,497.754,504.82,496.239L734.445,57.486c8.799,4.61,17.581,9.556,26.099,14.699L504.82,496.239z
		 M504.82,496.239L274.154,58.121c8.783-4.632,17.824-9.057,26.871-13.149L504.82,496.239
		C501.857,497.583,507.697,494.724,504.82,496.239z M504.82,496.239C501.843,494.906,507.865,497.392,504.82,496.239L679.731,32.932
		c9.316,3.518,18.649,7.37,27.741,11.45L504.82,496.239z M504.82,496.239L328.636,33.478c9.3-3.544,18.832-6.849,28.33-9.819
		L504.82,496.239C501.719,497.208,507.855,495.086,504.82,496.239z M504.82,496.239C501.717,495.284,507.974,497.01,504.82,496.239
		L622.429,15.203c9.669,2.357,19.393,5.043,28.899,7.985L504.82,496.239z M504.82,496.239L385.827,15.583
		c9.63-2.387,19.468-4.507,29.238-6.304L504.82,496.239C501.613,496.832,507.974,495.46,504.82,496.239z M504.82,496.239
		C501.615,495.665,508.072,496.625,504.82,496.239l58.723-491.66c9.876,1.169,19.836,2.656,29.599,4.418L504.82,496.239z
		 M504.82,496.239L444.637,4.767c9.812-1.194,19.809-2.107,29.7-2.713L504.82,496.239
		C501.512,496.444,508.08,495.845,504.82,496.239z M504.82,496.239C501.611,496.057,508.071,496.239,504.82,496.239L504.82,496.239
		L504.35,1.123h0.527c9.634,0,19.379,0.281,28.96,0.839L504.82,496.239z"/>
</g>
</svg>
