<svg id="Layer_1" data-name="Layer 1" xmlns="http://www.w3.org/2000/svg" viewBox="0 0 166.27 133.02"><defs><style>.cls-1{fill:#fff;}</style></defs><path class="cls-1" d="M346.06,402.43c-10.93,14.47-21.87,28.94-33,43.69l-17.5-43.68-.45,0c-.94,5.42-1.89,10.84-2.81,16.27-1.45,8.44-2.9,16.88-4.3,25.32-.26,1.58-.82,2.19-2.59,2.16q-10.43-.21-20.85,0c-2.14,0-2.26-.56-1.91-2.46q4.11-22.74,7.94-45.53c.44-2.63,1.26-3.53,4.11-3.52q48,.21,96.05,0c2.61,0,2.66.87,2.31,2.88q-7.76,43.62-15.42,87.26c-.19,1.09-.24,2.09-1.91,2.07-7.81-.09-15.61,0-23.7,0,4.86-28.21,9.7-56.24,14.53-84.28Z" transform="translate(-214.38 -353.96)"/><path class="cls-1" d="M247.31,486.91c-10.21,0-20.41-.06-30.62,0-1.95,0-2.58-.32-2.2-2.43q6.44-35.75,12.72-71.51c.94-5.31,1.87-10.62,2.71-15.94.27-1.71.82-2.38,2.75-2.33,6.77.16,13.55.13,20.33,0,1.94,0,2.63.24,2.24,2.44-2.41,13.4-4.66,26.81-7,40.22-1.25,7.25-2.49,14.5-3.8,21.75-.31,1.7-.05,2.37,1.95,2.35,11.92-.1,23.85,0,35.77-.1,2.28,0,2.7.58,2.3,2.71-1.29,6.72-2.46,13.46-3.57,20.21-.3,1.85-.81,2.67-3,2.64C267.72,486.82,257.52,486.91,247.31,486.91Z" transform="translate(-214.38 -353.96)"/><path class="cls-1" d="M274.26,379.44c-12.87,0-25.73,0-38.6,0-2,0-2.6-.39-2.18-2.54,1.38-7.05,2.56-14.15,3.75-21.24.23-1.4.9-1.72,2.23-1.71q31.91,0,63.82,0a2,2,0,0,1,2.25,1.5c2.87,7.33,5.77,14.65,8.77,21.92.74,1.79.34,2.09-1.45,2.08C300,379.41,287.12,379.43,274.26,379.44Z" transform="translate(-214.38 -353.96)"/><path class="cls-1" d="M380.65,354.18c-1.47,8.07-3,16-4.36,24-.29,1.67-1.38,1.21-2.29,1.22q-14.53,0-29.05,0h-9.41c.83-1.18,1.45-2.13,2.13-3q7.89-10.46,15.79-20.9a3,3,0,0,1,2.68-1.56c7.8.08,15.6,0,23.39.05A7.13,7.13,0,0,1,380.65,354.18Z" transform="translate(-214.38 -353.96)"/></svg>