<svg class="skils_svg" data-name="Layer 6" xmlns="http://www.w3.org/2000/svg"
                                    viewBox="0 0 56.8 76.51">
                                    <defs>
                                        <style>
                                            .cls-1,
                                            .cls-2 {
                                                fill: none;
                                                stroke: #484852;
                                                stroke-linecap: square;
                                                stroke-width: 2.63px;
                                            }

                                            .cls-1 {
                                                stroke-miterlimit: 10;
                                            }

                                            .cls-2 {
                                                stroke-linejoin: round;
                                            }
                                        </style>
                                    </defs>
                                    <title>uiux</title>
                                    <g id="_1" data-name="1">
                                        <polyline class="cls-1"
                                            points="55.49 23.28 55.49 75.2 1.32 75.2 1.32 1.32 43.18 1.32 55.49 13.64 55.49 17.11">
                                        </polyline>
                                        <polyline class="cls-2" points="43.18 9.25 43.18 1.32 55.49 13.64 45.67 13.64">
                                        </polyline>
                                        <polyline class="cls-1" points="43.18 7.48 43.18 13.64 45.67 13.64"></polyline>
                                        <rect class="cls-1" x="10.3" y="19.34" width="36.2" height="14.14"></rect>
                                        <line class="cls-1" x1="10.3" y1="40.87" x2="46.5" y2="41.02"></line>
                                        <line class="cls-1" x1="10.3" y1="43.5" x2="10.3" y2="42.33"></line>
                                        <line class="cls-1" x1="46.5" y1="43.5" x2="46.5" y2="41.02"></line>
                                        <line class="cls-1" x1="28.4" y1="43.5" x2="28.4" y2="41.81"></line>
                                        <line class="cls-1" x1="28.4" y1="36.22" x2="28.4" y2="34.48"></line>
                                        <line class="cls-1" x1="28.4" y1="60.9" x2="28.4" y2="55.53"></line>
                                        <line class="cls-1" x1="46.5" y1="60.9" x2="46.5" y2="55.53"></line>
                                        <rect class="cls-1" x="6.69" y="48.29" width="7.23" height="7.23"></rect>
                                        <path class="cls-1"
                                            d="M380.51,316.08h0a3.6,3.6,0,0,1-3.61-3.61h0a3.61,3.61,0,0,1,3.61-3.62h0a3.62,3.62,0,0,1,3.62,3.62h0A3.61,3.61,0,0,1,380.51,316.08Z"
                                            transform="translate(-352.11 -247.96)"></path>
                                        <rect class="cls-1" x="42.89" y="60.9" width="7.23" height="7.23" rx="3.62">
                                        </rect>
                                        <rect class="cls-1" x="24.79" y="48.29" width="25.33" height="7.24"></rect>
                                        <line class="cls-1" x1="14.08" y1="51.91" x2="19.83" y2="51.91"></line>
                                    </g>
                                </svg>