<svg class="skils_svg" data-name="Layer 3" xmlns="http://www.w3.org/2000/svg"
                                    viewBox="0 0 78.14 62.99">
<defs>
    <style>
        .cls-1,
        .cls-2 {
            fill: none;
            stroke: #484852;
            stroke-miterlimit: 10;
            stroke-width: 2.63px;
        }

        .cls-2 {
            stroke-linecap: square;
        }
    </style>
</defs>
<title>Front-End</title>
<g id="_3" data-name="3">
    <rect class="cls-1" x="1.32" y="1.32" width="75.51" height="60.36"></rect>
    <line class="cls-2" x1="1.32" y1="9.66" x2="68.83" y2="9.66"></line>
    <line class="cls-1" x1="6.05" y1="5.53" x2="8.78" y2="5.53"></line>
    <line class="cls-1" x1="11.5" y1="5.53" x2="14.22" y2="5.53"></line>
    <line class="cls-1" x1="16.94" y1="5.53" x2="19.66" y2="5.53"></line>
    <line class="cls-2" x1="9.78" y1="17.97" x2="17.94" y2="17.97"></line>
    <line class="cls-2" x1="9.78" y1="32.27" x2="21.69" y2="32.27"></line>
    <line class="cls-2" x1="30.46" y1="46.57" x2="35.57" y2="46.57"></line>
    <line class="cls-2" x1="9.78" y1="53.72" x2="24.52" y2="53.72"></line>
    <line class="cls-2" x1="9.78" y1="25.12" x2="15.15" y2="25.12"></line>
    <line class="cls-2" x1="27.78" y1="32.27" x2="33.15" y2="32.27"></line>
    <line class="cls-2" x1="21.26" y1="25.12" x2="23.46" y2="25.12"></line>
    <line class="cls-2" x1="9.78" y1="46.57" x2="15.15" y2="46.57"></line>
    <line class="cls-2" x1="21.69" y1="46.57" x2="23.9" y2="46.57"></line>
    <line class="cls-2" x1="30.46" y1="53.72" x2="32.67" y2="53.72"></line>
    <line class="cls-2" x1="27.78" y1="39.42" x2="18.53" y2="39.42"></line>
    <line class="cls-2" x1="11.98" y1="39.42" x2="9.78" y2="39.42"></line>
    <polyline class="cls-2" points="47.38 33.79 42.77 39.24 47.38 44.69"></polyline>
    <polyline class="cls-2" points="62.41 44.69 67.02 39.24 62.41 33.79"></polyline>
    <line class="cls-2" x1="52.47" y1="46.21" x2="57.32" y2="32.27"></line>
</g>
</svg>