<?xml version="1.0" encoding="utf-8"?>
<!-- Generator: Adobe Illustrator 16.2.1, SVG Export Plug-In . SVG Version: 6.00 Build 0)  -->
<!DOCTYPE svg PUBLIC "-//W3C//DTD SVG 1.1//EN" "http://www.w3.org/Graphics/SVG/1.1/DTD/svg11.dtd">
<svg version="1.1" id="Layer_1" xmlns="http://www.w3.org/2000/svg" xmlns:xlink="http://www.w3.org/1999/xlink" x="0px" y="0px"
	 width="123.636px" height="207.272px" viewBox="0 0 123.636 207.272" enable-background="new 0 0 123.636 207.272"
	 xml:space="preserve">
<path fill-rule="evenodd" clip-rule="evenodd" fill="#B72467" d="M47.093,146.885c-0.692-1.217-1.503-3.447-3.007-5.009
	c-1.019-1.058-3.16-1.876-4.54-1.583c-3.858,0.822-7.557,2.367-11.365,3.463c-5.632,1.619-8.109,0.371-11.075-4.85
	c-0.74-1.302-2.271-2.154-3.462-3.234c1.595-7.153,0.639-6.754,10.005-7.745c4.342-0.459,8.772-0.079,13.234-0.079
	c-0.514-7.194-8.325-11.633-3.189-18.704c-1.25,0-2.478,0-4.314,0c-1.435-7.492-2.958-14.991-4.237-22.531
	c-0.241-1.418,0.22-3.121,0.822-4.488c1.986-4.506-0.327-8.621-1.284-12.7c-1.016-4.332-3.258-8.376-4.992-12.611
	c-0.021,0.002,1.128-0.115,2.827-0.288c-3.073-2.86-5.723-5.326-8.373-7.792c0.242-0.35,0.484-0.699,0.726-1.049
	c4.106,1.806,8.213,3.612,12.32,5.418c0.209-0.35,0.418-0.7,0.627-1.049c-2.107-1.646-4.277-3.22-6.306-4.959
	c-2.115-1.813-4.094-3.786-6.132-5.689c0.264-0.436,0.528-0.871,0.792-1.307c3.924,2.043,7.848,4.086,12.431,6.472
	c-3.014-3.861-5.717-7.324-8.421-10.787c0.347-0.36,0.694-0.72,1.041-1.08c3.526,2.795,7.053,5.591,11.146,8.837
	c-2.654-4.27-5.024-8.083-7.394-11.896c0.403-0.317,0.805-0.635,1.208-0.952c2.396,2.551,4.895,5.016,7.16,7.679
	c2.185,2.568,4.13,5.34,6.768,7.653C38,41.563,35.89,37.098,33.781,32.632c0.472-0.241,0.943-0.482,1.415-0.724
	c4.244,6.611,8.488,13.222,13.224,20.6c0-2.856,0-4.851,0-6.846c0.239-0.066,0.478-0.133,0.717-0.199
	c1.367,3.497,2.771,6.979,4.093,10.492c2.735,7.274,5.954,14.421,7.985,21.889c1.983,7.293,2.687,14.93,4.048,22.398
	c1.007,5.518,1.908,11.077,3.348,16.487c1.051,3.955,3.215,6.954,8.332,5.256c1.215-0.403,2.878,0.544,4.266,0.855
	c-0.105,1.045-0.023,1.449-0.188,1.673c-6.447,8.875-9.303,7.335,0.982,17.222c10.84,10.421,19.5,22.006,25.27,35.693
	c-0.325-0.051-1.194-0.186-2.293-0.354c0.444,3.913,0.885,7.786,1.324,11.659c-0.453,0.144-0.907,0.286-1.36,0.43
	c-0.851-0.979-1.7-1.957-2.879-3.312c-0.628,3.492-1.206,6.707-1.784,9.922c-0.497,0.064-0.994,0.127-1.492,0.19
	c-0.672-1.834-1.343-3.668-1.986-5.427c-0.948,2.674-1.957,5.516-2.965,8.358c-0.453-0.079-0.908-0.157-1.362-0.235
	c-0.124-2.703-0.249-5.406-0.372-8.115c-1.565,2.802-3.133,5.609-4.701,8.416c-0.391-0.08-0.779-0.16-1.17-0.24
	c0.253-3.965,0.506-7.93,0.86-13.502c-2.444,3.811-4.128,6.434-5.812,9.058c-0.293-0.034-0.588-0.067-0.881-0.101
	c0.26-3.167,0.521-6.333,0.815-9.924c-1.8,1.079-3.147,1.887-4.509,2.703c-0.532-0.572-1.165-0.941-1.148-1.279
	c0.438-8.873-6.341-11.928-12.27-16.085c-4.085-2.865-7.329-6.976-10.776-10.688c-1.816-1.958-3.517-4.121-4.778-6.457
	C47.028,151.137,47.325,149.285,47.093,146.885z"/>
</svg>
